<svg xmlns="http://www.w3.org/2000/svg" viewBox="0 0 170 170" xmlns:c2pa="http://c2pa.org/manifest"><metadata><c2pa:manifest>AAAWgmp1bWIAAAAeanVtZGMycGEAEQAQgAAAqgA4m3EDYzJwYQAAABZcanVtYgAAAEdqdW1kYzJtYQARABCAAACqADibcQN1cm46YzJwYTo0NzY5YzU3YS00MTNjLTQ3NWMtYTUyYy04YjhiYWJiYjg1MGMAAAADl2p1bWIAAAApanVtZGMyYXMAEQAQgAAAqgA4m3EDYzJwYS5hc3NlcnRpb25zAAAAALxqdW1iAAAARGp1bWRjYm9yABEAEIAAAKoAOJtxE2MycGEuaW5ncmVkaWVudC52MwAAAAAYYzJzaP6vtNAdfOORxb8bu10hpJUAAABwY2JvcqNpZGM6Zm9ybWF0bWltYWdlL3N2Zyt4bWxqaW5zdGFuY2VJRHgseG1wOmlpZDo5NjAyYTVjNy01ZGU1LTQ5YWUtOTNhMS03MGNiMDk4NmM4ZjNscmVsYXRpb25zaGlwaHBhcmVudE9mAAAB4mp1bWIAAABBanVtZGNib3IAEQAQgAAAqgA4m3ETYzJwYS5hY3Rpb25zLnYyAAAAABhjMnNotcqAFHoODRK5yr1p/MAWJwAAAZljYm9yomdhY3Rpb25zgqJmYWN0aW9ua2MycGEub3BlbmVkanBhcmFtZXRlcnOha2luZ3JlZGllbnRzgaJjdXJseC1zZWxmI2p1bWJmPWMycGEuYXNzZXJ0aW9ucy9jMnBhLmluZ3JlZGllbnQudjNkaGFzaFggJR6MGwDmGvGfrLg+WepNLzV4kBxQWjybWqSP1KDpprmkZmFjdGlvbngdY29tLmFudGhyb3BpYy5jbGF1ZGUucHJvdmlkZWRqcGFyYW1ldGVyc6F4H2NvbS5hbnRocm9waWMub3JpZ2luLWNvbmZpZGVuY2VndW5rbm93bmtkZXNjcmlwdGlvbnhmQ2xhdWRlIHByb3ZpZGVkIHRoaXMgZmlsZSBhdCB0aGUgcmVxdWVzdCBvZiBhIHVzZXIgYW5kIG1heSBoYXZlIGNyZWF0ZWQgb3IgbW9kaWZpZWQgdGhlIGZpbGUgY29udGVudHMubXNvZnR3YXJlQWdlbnShZG5hbWVmQ2xhdWRlcmFsbEFjdGlvbnNJbmNsdWRlZPUAAADIanVtYgAAAEBqdW1kY2JvcgARABCAAACqADibcRNjMnBhLmhhc2guZGF0YQAAAAAYYzJzaF3S/sb2nrPIlKDcc/kSQhUAAACAY2JvcqVjYWxnZnNoYTI1NmNwYWRNAAAAAAAAAAAAAAAAAGRoYXNoWCBCl1sQ3Cf8r8EB2lAfLFbLXcXWu6BH9D6RC+WM+5np52RuYW1lbmp1bWJmIG1hbmlmZXN0amV4Y2x1c2lvbnOBomVzdGFydBh9Zmxlbmd0aBkeBAAAAj5qdW1iAAAAJ2p1bWRjMmNsABEAEIAAAKoAOJtxA2MycGEuY2xhaW0udjIAAAACD2Nib3KlY2FsZ2ZzaGEyNTZpc2lnbmF0dXJleE1zZWxmI2p1bWJmPS9jMnBhL3VybjpjMnBhOjQ3NjljNTdhLTQxM2MtNDc1Yy1hNTJjLThiOGJhYmJiODUwYy9jMnBhLnNpZ25hdHVyZWppbnN0YW5jZUlEeCx4bXA6aWlkOjIxNDE4ZWExLWUzYzctNDMwNi05MjdiLWYyNjAwMTE4N2IyMnJjcmVhdGVkX2Fzc2VydGlvbnODomN1cmx4LXNlbGYjanVtYmY9YzJwYS5hc3NlcnRpb25zL2MycGEuaW5ncmVkaWVudC52M2RoYXNoWCAlHowbAOYa8Z+suD5Z6k0vNXiQHFBaPJtapI/UoOmmuaJjdXJseCpzZWxmI2p1bWJmPWMycGEuYXNzZXJ0aW9ucy9jMnBhLmFjdGlvbnMudjJkaGFzaFggGADqCcwKAHT8yZ6jdM1OWoISRVmNn8YyF3XqmGx+NyKiY3VybHgpc2VsZiNqdW1iZj1jMnBhLmFzc2VydGlvbnMvYzJwYS5oYXNoLmRhdGFkaGFzaFgg/eVm6emGOGvv4B9ll7SyLN7+Yy2S1vtbFtYHryD0WKZ0Y2xhaW1fZ2VuZXJhdG9yX2luZm+jZG5hbWVvQW50aHJvcGljIEZpbGVzZ3ZlcnNpb25lMS4wLjBrc3BlY1ZlcnNpb25lMi40LjAAABA4anVtYgAAAChqdW1kYzJjcwARABCAAACqADibcQNjMnBhLnNpZ25hdHVyZQAAABAIY2JvctKEWQISogEmGCFZAgowggIGMIIBjaADAgECAhRA5aAK7sI50L64g/oGQgU9Z1UTADAKBggqhkjOPQQDAzBJMRcwFQYDVQQKEw5BbnRocm9waWMsIFBCQzEuMCwGA1UEAxMlQW50aHJvcGljIENvbnRlbnQgQ3JlZGVudGlhbHMgUm9vdCBDQTAeFw0yNjA4MDcxODQzNTZaFw0yODA4MDYxOTQzNTZaMEQxFzAVBgNVBAoTDkFudGhyb3BpYywgUEJDMSkwJwYDVQQDEyBBbnRocm9waWMgQ2xhdWRlIENvbnRlbnQgU2lnbmluZzBZMBMGByqGSM49AgEGCCqGSM49AwEHA0IABJh6CmvLUBgFFNU0vUKlOVtE6djd17L5SuwX0LemFisBM3dkd/3cyjxFA3Qo5S46fX0/ihY0VZ7mfb9KF703t5OjWDBWMA4GA1UdDwEB/wQEAwIHgDAVBgNVHSUEDjAMBgorBgEEAYPoXgIBMAwGA1UdEwEB/wQCMAAwHwYDVR0jBBgwFoAUzlHiBIFOZFsj+OPEz5o+nMHXXMIwCgYIKoZIzj0EAwMDZwAwZAIwMXMdFJ4BetLLVY7ORuE9noqbbAZOZn/aArXyTwFAZfKrPzxF2vPoJNf1+UCdg1XGAjBwX1zd9WGqYkqmL5SFqw1QySjr1zJfpJM9+1rdDwSPLMOPOjKuiXjoU/pUUeG9RwmhY3BhZFkNngAAAAAAAAAAAAAAAAAAAAAAAAAAAAAAAAAAAAAAAAAAAAAAAAAAAAAAAAAAAAAAAAAAAAAAAAAAAAAAAAAAAAAAAAAAAAAAAAAAAAAAAAAAAAAAAAAAAAAAAAAAAAAAAAAAAAAAAAAAAAAAAAAAAAAAAAAAAAAAAAAAAAAAAAAAAAAAAAAAAAAAAAAAAAAAAAAAAAAAAAAAAAAAAAAAAAAAAAAAAAAAAAAAAAAAAAAAAAAAAAAAAAAAAAAAAAAAAAAAAAAAAAAAAAAAAAAAAAAAAAAAAAAAAAAAAAAAAAAAAAAAAAAAAAAAAAAAAAAAAAAAAAAAAAAAAAAAAAAAAAAAAAAAAAAAAAAAAAAAAAAAAAAAAAAAAAAAAAAAAAAAAAAAAAAAAAAAAAAAAAAAAAAAAAAAAAAAAAAAAAAAAAAAAAAAAAAAAAAAAAAAAAAAAAAAAAAAAAAAAAAAAAAAAAAAAAAAAAAAAAAAAAAAAAAAAAAAAAAAAAAAAAAAAAAAAAAAAAAAAAAAAAAAAAAAAAAAAAAAAAAAAAAAAAAAAAAAAAAAAAAAAAAAAAAAAAAAAAAAAAAAAAAAAAAAAAAAAAAAAAAAAAAAAAAAAAAAAAAAAAAAAAAAAAAAAAAAAAAAAAAAAAAAAAAAAAAAAAAAAAAAAAAAAAAAAAAAAAAAAAAAAAAAAAAAAAAAAAAAAAAAAAAAAAAAAAAAAAAAAAAAAAAAAAAAAAAAAAAAAAAAAAAAAAAAAAAAAAAAAAAAAAAAAAAAAAAAAAAAAAAAAAAAAAAAAAAAAAAAAAAAAAAAAAAAAAAAAAAAAAAAAAAAAAAAAAAAAAAAAAAAAAAAAAAAAAAAAAAAAAAAAAAAAAAAAAAAAAAAAAAAAAAAAAAAAAAAAAAAAAAAAAAAAAAAAAAAAAAAAAAAAAAAAAAAAAAAAAAAAAAAAAAAAAAAAAAAAAAAAAAAAAAAAAAAAAAAAAAAAAAAAAAAAAAAAAAAAAAAAAAAAAAAAAAAAAAAAAAAAAAAAAAAAAAAAAAAAAAAAAAAAAAAAAAAAAAAAAAAAAAAAAAAAAAAAAAAAAAAAAAAAAAAAAAAAAAAAAAAAAAAAAAAAAAAAAAAAAAAAAAAAAAAAAAAAAAAAAAAAAAAAAAAAAAAAAAAAAAAAAAAAAAAAAAAAAAAAAAAAAAAAAAAAAAAAAAAAAAAAAAAAAAAAAAAAAAAAAAAAAAAAAAAAAAAAAAAAAAAAAAAAAAAAAAAAAAAAAAAAAAAAAAAAAAAAAAAAAAAAAAAAAAAAAAAAAAAAAAAAAAAAAAAAAAAAAAAAAAAAAAAAAAAAAAAAAAAAAAAAAAAAAAAAAAAAAAAAAAAAAAAAAAAAAAAAAAAAAAAAAAAAAAAAAAAAAAAAAAAAAAAAAAAAAAAAAAAAAAAAAAAAAAAAAAAAAAAAAAAAAAAAAAAAAAAAAAAAAAAAAAAAAAAAAAAAAAAAAAAAAAAAAAAAAAAAAAAAAAAAAAAAAAAAAAAAAAAAAAAAAAAAAAAAAAAAAAAAAAAAAAAAAAAAAAAAAAAAAAAAAAAAAAAAAAAAAAAAAAAAAAAAAAAAAAAAAAAAAAAAAAAAAAAAAAAAAAAAAAAAAAAAAAAAAAAAAAAAAAAAAAAAAAAAAAAAAAAAAAAAAAAAAAAAAAAAAAAAAAAAAAAAAAAAAAAAAAAAAAAAAAAAAAAAAAAAAAAAAAAAAAAAAAAAAAAAAAAAAAAAAAAAAAAAAAAAAAAAAAAAAAAAAAAAAAAAAAAAAAAAAAAAAAAAAAAAAAAAAAAAAAAAAAAAAAAAAAAAAAAAAAAAAAAAAAAAAAAAAAAAAAAAAAAAAAAAAAAAAAAAAAAAAAAAAAAAAAAAAAAAAAAAAAAAAAAAAAAAAAAAAAAAAAAAAAAAAAAAAAAAAAAAAAAAAAAAAAAAAAAAAAAAAAAAAAAAAAAAAAAAAAAAAAAAAAAAAAAAAAAAAAAAAAAAAAAAAAAAAAAAAAAAAAAAAAAAAAAAAAAAAAAAAAAAAAAAAAAAAAAAAAAAAAAAAAAAAAAAAAAAAAAAAAAAAAAAAAAAAAAAAAAAAAAAAAAAAAAAAAAAAAAAAAAAAAAAAAAAAAAAAAAAAAAAAAAAAAAAAAAAAAAAAAAAAAAAAAAAAAAAAAAAAAAAAAAAAAAAAAAAAAAAAAAAAAAAAAAAAAAAAAAAAAAAAAAAAAAAAAAAAAAAAAAAAAAAAAAAAAAAAAAAAAAAAAAAAAAAAAAAAAAAAAAAAAAAAAAAAAAAAAAAAAAAAAAAAAAAAAAAAAAAAAAAAAAAAAAAAAAAAAAAAAAAAAAAAAAAAAAAAAAAAAAAAAAAAAAAAAAAAAAAAAAAAAAAAAAAAAAAAAAAAAAAAAAAAAAAAAAAAAAAAAAAAAAAAAAAAAAAAAAAAAAAAAAAAAAAAAAAAAAAAAAAAAAAAAAAAAAAAAAAAAAAAAAAAAAAAAAAAAAAAAAAAAAAAAAAAAAAAAAAAAAAAAAAAAAAAAAAAAAAAAAAAAAAAAAAAAAAAAAAAAAAAAAAAAAAAAAAAAAAAAAAAAAAAAAAAAAAAAAAAAAAAAAAAAAAAAAAAAAAAAAAAAAAAAAAAAAAAAAAAAAAAAAAAAAAAAAAAAAAAAAAAAAAAAAAAAAAAAAAAAAAAAAAAAAAAAAAAAAAAAAAAAAAAAAAAAAAAAAAAAAAAAAAAAAAAAAAAAAAAAAAAAAAAAAAAAAAAAAAAAAAAAAAAAAAAAAAAAAAAAAAAAAAAAAAAAAAAAAAAAAAAAAAAAAAAAAAAAAAAAAAAAAAAAAAAAAAAAAAAAAAAAAAAAAAAAAAAAAAAAAAAAAAAAAAAAAAAAAAAAAAAAAAAAAAAAAAAAAAAAAAAAAAAAAAAAAAAAAAAAAAAAAAAAAAAAAAAAAAAAAAAAAAAAAAAAAAAAAAAAAAAAAAAAAAAAAAAAAAAAAAAAAAAAAAAAAAAAAAAAAAAAAAAAAAAAAAAAAAAAAAAAAAAAAAAAAAAAAAAAAAAAAAAAAAAAAAAAAAAAAAAAAAAAAAAAAAAAAAAAAAAAAAAAAAAAAAAAAAAAAAAAAAAAAAAAAAAAAAAAAAAAAAAAAAAAAAAAAAAAAAAAAAAAAAAAAAAAAAAAAAAAAAAAAAAAAAAAAAAAAAAAAAAAAAAAAAAAAAAAAAAAAAAAAAAAAAAAAAAAAAAAAAAAAAAAAAAAAAAAAAAAAAAAAAAAAAAAAAAAAAAAAAAAAAAAAAAAAAAAAAAAAAAAAAAAAAAAAAAAAAAAAAAAAAAAAAAAAAAAAAAAAAAAAAAAAAAAAAAAAAAAAAAAAAAAAAAAAAAAAAAAAAAAAAAAAAAAAAAAAAAAAAAAAAAAAAAAAAAAAAAAAAAAAAAAAAAAAAAAAAAAAAAAAAAAAAAAAAAAAAAAAAAAAAAAAAAAAAAAAAAAAAAAAAAAAAAAAAAAAAAAAAAAAAAAAAAAAAAAAAAAAAAAAAAAAAAAAAAAAAAAAAAAAAAAAAAAAAAAAAAAAAAAAAAAAAAAAAAAAAAAAAAAAAAAAAAAAAAAAAAAAAAAAAAAAAAAAAAAAAAAAAAAAAAAAAAAAAAAAAAAAAAAAAAAAAAAAAAAAAAAAAAAAAAAAAAAAAAAAAAAAAAAAAAAAAAAAAAAAAAAAAAAAAAAAAAAAAAAAAAAAAAAAAAAAAAAAAAAAAAAAAAAAAAAAAAAAAAAAAAAAAAAAAAAAAAAAAAAAAAAAAAAAAAAAAAAAAAAAAAAAAAAAAAAAAAAAAAAAAAAAAAAAAAAAAAAAAAAAAAAAAAAAAAAAAAAAAAAAAAAAAAAAAAAAAAAAAAAAAAAAAAAAAAAAAAAAAAAAAAAAAAAAAAAAAAAAAAAAAAAAAAAAAAAAAAAAAAAAAAAAAAAAAAAAAAAAAAAAAAAAAAAAAAAAAAAAAAAAAAAAAAAAAAAAAAAAAAAAAAAAAAAAAAAAAAAAAAAAAAAAAAAAAAAAAAAAAAAAAAAAAAAAAAAAAAAAAAAAAAAAAAAAAAAAAAAAAAAAAAAAAAAAAAAAAAAAAAAAAAAAAAAAAAAAAAAAAAAAAAAAAAAAAAAAAAAAAAAAAAAAAAAAAAAAAAAAAAAAAAAAAAAAAAAAAAAAAAAAAAAAAAAAAAAAAAAAAAAAAAAAAAAAAAAAAAAAAAAAAAAAAAAAAAAAAAAAAAAAAAAAAAAAAAAAAAAAAAAAAAAAAAAAAAAAAAAAAAAAAAAAAAAAAAAAAAAAAAAAAAAAAAAAAAAAAAAAAAAAAAAAAAAAAAAAAAAAAAAAAAAAAAAAAAAAAAAAAAAAAAAAAAAAAAAAAAAAAAAAAAAAAAAAAAAAAAAAAAAAAAAAAAAAAAAAAAAAAAAAAAAAAAAAAAAAAAAAAAAAAAAAAAAAAAAAAAAAAAAAAAAAAAAAAAAAAAAAAAAAAAAAAAAAAAAAAAAAAAAAAAAAAAAAAAAAAAAAAAAAAAAAAAAAAAAAAAAAAAAAAAAAAAAAAAAAAAAAAAAAAAAAAAAAAAAAAAAAAAAAAAAAAAAAAAAAAAAAAAAAAAAAAAAAAAAAAAAAAAAAAAAAAAAAAAAAAAAAAAAAAAAAAAAAAAAAAAAAAAAAAAAAAAAAAAAAAAAAAAAAAPZYQMFLiP1N60kt/DsGGSrELoUjTqXvuH2nVVWdJlPCMQ213V4jAMhrbavPktPY2I/TiSMr1/A5pX/4ufwUY+JagQ4=</c2pa:manifest></metadata><path d="M6 160H164" fill="none" stroke="#1E2A5A" stroke-width="3" stroke-linejoin="round" stroke-linecap="round"></path><path d="M24 74H146V160H24Z" fill="#F9DC9E" transform="translate(3 3)"></path><path d="M24 74H146V160H24Z" fill="#FFFFFF" stroke="#1E2A5A" stroke-width="3" stroke-linejoin="round" stroke-linecap="round"></path><path d="M18 74L32 52H138L152 74Z" fill="#2F3F86" stroke="#1E2A5A" stroke-width="3" stroke-linejoin="round" stroke-linecap="round"></path><path d="M20 74H33V83A6.5 6.5 0 0 1 20 83Z" fill="#F2B33D" stroke="#1E2A5A" stroke-width="2.5" stroke-linejoin="round"></path><path d="M33 74H46V83A6.5 6.5 0 0 1 33 83Z" fill="#FFFFFF" stroke="#1E2A5A" stroke-width="2.5" stroke-linejoin="round"></path><path d="M46 74H59V83A6.5 6.5 0 0 1 46 83Z" fill="#F2B33D" stroke="#1E2A5A" stroke-width="2.5" stroke-linejoin="round"></path><path d="M59 74H72V83A6.5 6.5 0 0 1 59 83Z" fill="#FFFFFF" stroke="#1E2A5A" stroke-width="2.5" stroke-linejoin="round"></path><path d="M72 74H85V83A6.5 6.5 0 0 1 72 83Z" fill="#F2B33D" stroke="#1E2A5A" stroke-width="2.5" stroke-linejoin="round"></path><path d="M85 74H98V83A6.5 6.5 0 0 1 85 83Z" fill="#FFFFFF" stroke="#1E2A5A" stroke-width="2.5" stroke-linejoin="round"></path><path d="M98 74H111V83A6.5 6.5 0 0 1 98 83Z" fill="#F2B33D" stroke="#1E2A5A" stroke-width="2.5" stroke-linejoin="round"></path><path d="M111 74H124V83A6.5 6.5 0 0 1 111 83Z" fill="#FFFFFF" stroke="#1E2A5A" stroke-width="2.5" stroke-linejoin="round"></path><path d="M124 74H137V83A6.5 6.5 0 0 1 124 83Z" fill="#F2B33D" stroke="#1E2A5A" stroke-width="2.5" stroke-linejoin="round"></path><path d="M137 74H150V83A6.5 6.5 0 0 1 137 83Z" fill="#FFFFFF" stroke="#1E2A5A" stroke-width="2.5" stroke-linejoin="round"></path><path d="M28 122H142V160H28Z" fill="#D9962A" transform="translate(3 3)"></path><path d="M28 122H142V160H28Z" fill="#F2B33D" stroke="#1E2A5A" stroke-width="3" stroke-linejoin="round" stroke-linecap="round"></path><g transform="translate(52 70) scale(0.42)"><path d="M18 140C18 116 32 102 60 102S102 116 102 140Z" fill="#E2F0E7" transform="translate(3 3)"></path><path d="M18 140C18 116 32 102 60 102S102 116 102 140Z" fill="#1F7A52" stroke="#1E2A5A" stroke-width="3" stroke-linejoin="round" stroke-linecap="round"></path><path d="M60 18C38 18 26 34 26 54C26 70 30 84 38 96C44 104 52 108 60 108C68 108 76 104 82 96C90 84 94 70 94 54C94 34 82 18 60 18Z" fill="#C9CFEA" transform="translate(3 3)"></path><path d="M60 18C38 18 26 34 26 54C26 70 30 84 38 96C44 104 52 108 60 108C68 108 76 104 82 96C90 84 94 70 94 54C94 34 82 18 60 18Z" fill="#2F3F86" stroke="#1E2A5A" stroke-width="3" stroke-linejoin="round" stroke-linecap="round"></path><path d="M60 34C48 34 41 44 41 57C41 71 49 82 60 82C71 82 79 71 79 57C79 44 72 34 60 34Z" fill="#DDA77A" stroke="#1E2A5A" stroke-width="3" stroke-linejoin="round" stroke-linecap="round"></path><path d="M49 56Q52.5 52.5 56 56" fill="none" stroke="#1E2A5A" stroke-width="2.5" stroke-linejoin="round" stroke-linecap="round"></path><path d="M64 56Q67.5 52.5 71 56" fill="none" stroke="#1E2A5A" stroke-width="2.5" stroke-linejoin="round" stroke-linecap="round"></path><path d="M53 67Q60 73 67 67" fill="none" stroke="#1E2A5A" stroke-width="2.5" stroke-linejoin="round" stroke-linecap="round"></path><ellipse cx="47" cy="64" rx="3.5" ry="2" fill="#B3412E" opacity=".35"></ellipse><ellipse cx="73" cy="64" rx="3.5" ry="2" fill="#B3412E" opacity=".35"></ellipse><path d="M42 112H78V140H42Z" fill="#F2B33D" transform="translate(3 3)"></path><path d="M42 112H78V140H42Z" fill="#F2B33D" stroke="#1E2A5A" stroke-width="3" stroke-linejoin="round" stroke-linecap="round"></path><path d="M48 112L45 104M72 112L75 104" fill="none" stroke="#1E2A5A" stroke-width="2.5" stroke-linejoin="round" stroke-linecap="round"></path></g><g transform="translate(102 82) scale(0.3)"><path d="M38 26H82V32C94 36 102 44 102 58V120A16 16 0 0 1 86 136H34A16 16 0 0 1 18 120V58C18 44 26 36 38 32Z" fill="#FFFFFF"></path><path d="M20 56H100V120A16 16 0 0 1 84 136H36A16 16 0 0 1 20 120Z" fill="#F2B33D"></path><path d="M38 26H82V32C94 36 102 44 102 58V120A16 16 0 0 1 86 136H34A16 16 0 0 1 18 120V58C18 44 26 36 38 32Z" fill="none" stroke="#1E2A5A" stroke-width="4" stroke-linejoin="round" stroke-linecap="round"></path><rect x="32" y="12" width="56" height="15" rx="5" fill="#1E2A5A"></rect></g><circle cx="118" cy="74" r="6" fill="#F2B33D"></circle><circle cx="116" cy="72" r="6" fill="none" stroke="#1E2A5A" stroke-width="2.5"></circle><path d="M113.9 72H118.1" stroke="#1E2A5A" stroke-width="2" stroke-linecap="round"></path><path d="M116 62v-6" fill="none" stroke="#1E2A5A" stroke-width="2" stroke-linejoin="round" stroke-linecap="round"></path></svg>